<?xml version="1.0" encoding="UTF-8"?>
<!DOCTYPE svg PUBLIC "-//W3C//DTD SVG 1.1//EN" "http://www.w3.org/Graphics/SVG/1.1/DTD/svg11.dtd">
<!-- Creator: CorelDRAW X5 -->
<svg xmlns="http://www.w3.org/2000/svg" xml:space="preserve" width="272.751mm" height="68.3547mm" style="shape-rendering:geometricPrecision; text-rendering:geometricPrecision; image-rendering:optimizeQuality; fill-rule:evenodd; clip-rule:evenodd"
viewBox="0 0 26345 6602"
 xmlns:xlink="http://www.w3.org/1999/xlink">
 <defs>
  <style type="text/css">
   <![CDATA[
    .str0 {stroke:black;stroke-width:127.777}
    .fil1 {fill:none;fill-rule:nonzero}
    .fil4 {fill:blue;fill-rule:nonzero}
    .fil2 {fill:lime;fill-rule:nonzero}
    .fil0 {fill:red;fill-rule:nonzero}
    .fil3 {fill:yellow;fill-rule:nonzero}
   ]]>
  </style>
 </defs>
 <g id="Layer_x0020_1">
  <metadata id="CorelCorpID_0Corel-Layer"/>
  <path class="fil0" d="M2168 2345c0,-362 -18,-903 -54,-1624l1667 0c18,0 32,485 43,1455 782,-59 1394,-88 1836,-88l-553 1667c-113,-47 -318,-71 -615,-71 -173,0 -396,10 -668,28 0,231 -7,713 -22,1445l-1667 0 32 -1259c-883,130 -1573,267 -2069,413l553 -1667c330,-115 835,-215 1516,-298z"/>
  <path id="1" class="fil1 str0" d="M2168 2345c0,-362 -18,-903 -54,-1624l1667 0c18,0 32,485 43,1455 782,-59 1394,-88 1836,-88l-553 1667c-113,-47 -318,-71 -615,-71 -173,0 -396,10 -668,28 0,231 -7,713 -22,1445l-1667 0 32 -1259c-883,130 -1573,267 -2069,413l553 -1667c330,-115 835,-215 1516,-298z"/>
  <path class="fil2" d="M7024 4186l555 -1668c481,-162 1288,-297 2421,-402 1083,-101 1944,-152 2585,-152l-553 1667c-113,-47 -314,-71 -604,-71 -778,0 -1775,105 -2991,315 -522,91 -992,195 -1412,310z"/>
  <path id="1" class="fil1 str0" d="M7024 4186l555 -1668c481,-162 1288,-297 2421,-402 1083,-101 1944,-152 2585,-152l-553 1667c-113,-47 -314,-71 -604,-71 -778,0 -1775,105 -2991,315 -522,91 -992,195 -1412,310z"/>
  <path class="fil3" d="M17343 2127c406,-528 723,-1087 950,-1676l1005 874c-387,813 -757,1483 -1110,2012 611,910 916,1468 916,1672l-831 832c-277,-495 -567,-984 -869,-1469 -667,743 -1372,1210 -2111,1403l-813 -1125c705,-359 1392,-884 2060,-1577 -932,-1386 -1644,-2098 -2135,-2135l793 -874c416,0 1131,687 2145,2063z"/>
  <path id="1" class="fil1 str0" d="M17343 2127c406,-528 723,-1087 950,-1676l1005 874c-387,813 -757,1483 -1110,2012 611,910 916,1468 916,1672l-831 832c-277,-495 -567,-984 -869,-1469 -667,743 -1372,1210 -2111,1403l-813 -1125c705,-359 1392,-884 2060,-1577 -932,-1386 -1644,-2098 -2135,-2135l793 -874c416,0 1131,687 2145,2063z"/>
  <path class="fil4" d="M23701 456c218,0 404,78 558,233 153,155 229,341 229,560 0,237 -79,431 -238,583 -159,152 -348,227 -571,227 -215,0 -401,-79 -558,-237 -157,-157 -237,-343 -237,-558 0,-226 79,-417 237,-574 157,-157 350,-235 580,-235zm0 3771c218,0 404,78 558,233 153,155 229,341 229,560 0,240 -79,435 -238,587 -159,148 -348,222 -571,222 -215,0 -401,-78 -558,-235 -157,-157 -237,-343 -237,-558 0,-226 79,-417 237,-574 157,-157 350,-235 580,-235zm-937 -1710l2676 0c276,0 444,-4 504,-9 70,-11 114,-16 132,-16 137,0 206,70 206,211 0,78 -29,215 -90,410 -60,195 -119,352 -179,468 -88,166 -191,249 -307,249l-841 -74 -2369 0c-424,0 -775,11 -1053,33 -43,4 -81,4 -117,4 -67,0 -125,-20 -172,-60 -47,-42 -72,-90 -72,-146 0,-60 38,-199 114,-415 76,-217 141,-372 193,-468 92,-162 209,-244 356,-244 38,0 88,4 153,11 341,32 630,47 867,47z"/>
  <path id="1" class="fil1 str0" d="M23701 456c218,0 404,78 558,233 153,155 229,341 229,560 0,237 -79,431 -238,583 -159,152 -348,227 -571,227 -215,0 -401,-79 -558,-237 -157,-157 -237,-343 -237,-558 0,-226 79,-417 237,-574 157,-157 350,-235 580,-235zm0 3771c218,0 404,78 558,233 153,155 229,341 229,560 0,240 -79,435 -238,587 -159,148 -348,222 -571,222 -215,0 -401,-78 -558,-235 -157,-157 -237,-343 -237,-558 0,-226 79,-417 237,-574 157,-157 350,-235 580,-235zm-937 -1710l2676 0c276,0 444,-4 504,-9 70,-11 114,-16 132,-16 137,0 206,70 206,211 0,78 -29,215 -90,410 -60,195 -119,352 -179,468 -88,166 -191,249 -307,249l-841 -74 -2369 0c-424,0 -775,11 -1053,33 -43,4 -81,4 -117,4 -67,0 -125,-20 -172,-60 -47,-42 -72,-90 -72,-146 0,-60 38,-199 114,-415 76,-217 141,-372 193,-468 92,-162 209,-244 356,-244 38,0 88,4 153,11 341,32 630,47 867,47z"/>
 </g>
</svg>
